<svg width="11" height="17" viewBox="0 0 11 17" fill="none" xmlns="http://www.w3.org/2000/svg">
<path d="M9.69791 0.00354004L7.49331 0C5.01661 0 3.41609 1.64212 3.41609 4.18372V6.1127H1.19955C1.00801 6.1127 0.852905 6.26798 0.852905 6.45952V9.2544C0.852905 9.446 1.00819 9.601 1.19955 9.601H3.41609V16.6534C3.41609 16.8449 3.57119 17 3.76272 17H6.65471C6.84621 17 7.00131 16.8447 7.00131 16.6534V9.601H9.59301C9.7845 9.601 9.93961 9.446 9.93961 9.2544L9.94071 6.45952C9.94071 6.36755 9.90411 6.27948 9.83921 6.21439C9.77431 6.14931 9.68581 6.1127 9.59391 6.1127H7.00131V4.47748C7.00131 3.69153 7.18861 3.29254 8.21241 3.29254L9.6975 3.29201C9.8889 3.29201 10.044 3.13673 10.044 2.94537V0.35018C10.044 0.15899 9.88901 0.00389004 9.69791 0.00354004Z" fill="#C3C3C3"/>
</svg>
